<?xml version="1.0" encoding="UTF-8"?>
<svg id="Layer_1" xmlns="http://www.w3.org/2000/svg" version="1.1" viewBox="0 0 911.15 266.32">
  <!-- Generator: Adobe Illustrator 29.5.0, SVG Export Plug-In . SVG Version: 2.1.0 Build 137)  -->
  <defs>
    <style>
      .st0 {
        fill: #fcf8f5;
      }
    </style>
  </defs>
  <g>
    <g>
      <path class="st0" d="M316.33,112.08v-4.71c2.86,0,5.05-.76,6.57-2.29s2.79-3.62,3.79-6.29c1-2.66,2.16-5.76,3.5-9.29l29.43-80.14h3.43l31.86,81.28c.76,2,1.62,4.57,2.57,7.71.95,3.14,1.33,5.81,1.14,8,1.62-.09,3.24-.19,4.86-.29,1.62-.09,3.24-.19,4.86-.29v6.29h-32.71v-4.71c3.62-.09,6-.9,7.14-2.43,1.14-1.52,1.57-3.33,1.29-5.43-.29-2.09-.76-4-1.43-5.71l-5-13.43-37.14.86-5,15.28c-.67,2.29-1.26,4.1-1.79,5.43-.52,1.34-1.12,2.81-1.79,4.43,1.9-.09,3.79-.19,5.64-.29,1.86-.09,3.69-.19,5.5-.29v6.29h-26.71ZM342.62,75.09h33l-10.14-27.28c-1.05-2.95-2.12-5.88-3.21-8.79-1.1-2.9-2.17-5.83-3.21-8.79h-.29c-.95,2.67-1.93,5.33-2.93,8-1,2.67-2.02,5.38-3.07,8.14l-10.14,28.71Z"/>
      <path class="st0" d="M412.9,112.08v-4.29c2.95,0,5-.74,6.14-2.21,1.14-1.48,1.81-3.52,2-6.14.19-2.62.29-5.64.29-9.07v-32.57c0-1.52.02-3.05.07-4.57.05-1.52.21-3.09.5-4.71-1.71.1-3.41.19-5.07.29-1.67.1-3.36.19-5.07.29v-6c4.19,0,7.36-.19,9.5-.57,2.14-.38,3.74-.86,4.79-1.43,1.05-.57,1.9-1.19,2.57-1.86h4.14c.19.95.31,2.05.36,3.29.05,1.24.12,2.67.21,4.29,2.86-2.48,6.14-4.5,9.86-6.07,3.71-1.57,7.43-2.36,11.14-2.36,4.76,0,8.76.86,12,2.57,3.24,1.71,5.76,4.05,7.57,7,3.24-2.67,6.98-4.93,11.21-6.79,4.24-1.86,8.4-2.79,12.5-2.79,8.29,0,14.38,2.5,18.28,7.5,3.9,5,5.76,13.17,5.57,24.5l-.14,26.57c0,1.91-.02,3.6-.07,5.07-.05,1.48-.21,3.02-.5,4.64,1.52-.09,3.02-.17,4.5-.21,1.48-.05,2.98-.12,4.5-.21v5.86h-29.14v-4.29c2.95,0,5-.74,6.14-2.21,1.14-1.48,1.81-3.52,2-6.14.19-2.62.29-5.64.29-9.07v-20c0-8.19-1.31-14.33-3.93-18.43-2.62-4.09-6.74-6.09-12.35-6-2.95,0-5.91.67-8.86,2-2.95,1.33-5.52,3-7.71,5,.48,1.52.83,3.17,1.07,4.93.24,1.76.36,3.6.36,5.5-.1,5.52-.14,11.1-.14,16.71s-.05,11.24-.14,16.86c0,1.91-.03,3.6-.07,5.07-.05,1.48-.21,3.02-.5,4.64,1.52-.09,3.02-.17,4.5-.21,1.48-.05,2.97-.12,4.5-.21v5.86h-29.14v-4.29c2.95,0,4.98-.74,6.07-2.21,1.09-1.48,1.76-3.52,2-6.14.24-2.62.36-5.64.36-9.07l.14-20c.09-8.19-1.1-14.38-3.57-18.57-2.48-4.19-6.52-6.24-12.14-6.14-2.95,0-5.86.64-8.71,1.93-2.86,1.29-5.29,2.93-7.28,4.93,0,1.14.02,2.36.07,3.64.05,1.29.07,2.64.07,4.07v36.71c0,1.91-.02,3.6-.07,5.07-.05,1.48-.21,3.02-.5,4.64,1.52-.09,3.02-.17,4.5-.21,1.48-.05,2.98-.12,4.5-.21v5.86h-29.14Z"/>
      <path class="st0" d="M540.61,107.8c2.95,0,5-.74,6.14-2.21,1.14-1.48,1.81-3.52,2-6.14.19-2.62.29-5.64.29-9.07v-32.57c0-1.52.02-3.05.07-4.57.05-1.52.21-3.09.5-4.71-1.71.1-3.41.17-5.07.21-1.67.05-3.36.12-5.07.21v-5.86h4.43c4.09,0,6.93-.4,8.5-1.21,1.57-.81,2.88-1.69,3.93-2.64h4.14c.19,1.52.33,3.41.43,5.64.09,2.24.19,5.07.29,8.5,1.43-2.38,3.38-4.71,5.86-7,2.48-2.29,5.26-4.19,8.36-5.71,3.09-1.52,6.36-2.29,9.79-2.29,2.66,0,5,.71,7,2.14,2,1.43,3,3.71,3,6.86,0,.76-.24,1.69-.71,2.79-.48,1.1-1.24,2.05-2.28,2.86-1.05.81-2.43,1.21-4.14,1.21-2.1-.09-3.76-.93-5-2.5-1.24-1.57-1.71-3.4-1.43-5.5-2.38-.09-4.83.52-7.36,1.86-2.52,1.33-4.88,3.17-7.07,5.5-2.19,2.33-4.14,5.07-5.86,8.21l.14,35.14c0,1.91-.02,3.6-.07,5.07-.05,1.48-.21,3.02-.5,4.64,1.52-.09,3.02-.17,4.5-.21,1.48-.05,2.97-.12,4.5-.21v5.86h-29.28v-4.29Z"/>
      <path class="st0" d="M644.89,112.08c-.29-1.62-.48-3.05-.57-4.29-.1-1.24-.24-2.52-.43-3.86-3.24,3.24-6.74,5.79-10.5,7.64-3.76,1.86-7.74,2.79-11.93,2.79-7.24,0-12.62-1.64-16.14-4.93-3.52-3.29-5.29-7.31-5.29-12.07,0-4.38,1.36-8.16,4.07-11.36,2.71-3.19,6.24-5.81,10.57-7.86,4.33-2.05,9.05-3.57,14.14-4.57,5.09-1,10.02-1.45,14.78-1.36v-8.86c0-3.33-.29-6.48-.86-9.43-.57-2.95-1.81-5.38-3.71-7.29-1.91-1.9-4.95-2.9-9.14-3-2.76-.09-5.6.43-8.5,1.57-2.91,1.14-5.02,3.1-6.36,5.86.76.76,1.26,1.64,1.5,2.64.24,1,.36,1.93.36,2.79,0,1.14-.48,2.45-1.43,3.93-.95,1.48-2.62,2.17-5,2.07-2,0-3.52-.69-4.57-2.07-1.05-1.38-1.57-3.02-1.57-4.93,0-3.24,1.21-6.14,3.64-8.71s5.79-4.62,10.07-6.14c4.29-1.52,9.14-2.29,14.57-2.29,8,0,13.9,2.12,17.71,6.36,3.81,4.24,5.67,10.93,5.57,20.07v10.64c0,3.57-.02,7.14-.07,10.71-.05,3.57-.07,7.17-.07,10.79,0,1.52-.05,3.05-.14,4.57-.1,1.52-.24,3.24-.43,5.14,1.71-.09,3.4-.19,5.07-.29,1.67-.09,3.36-.19,5.07-.29v6h-20.43ZM643.6,77.09c-3.24.1-6.64.5-10.21,1.21-3.57.71-6.86,1.79-9.86,3.21-3,1.43-5.43,3.31-7.29,5.64-1.86,2.33-2.74,5.17-2.64,8.5.19,3.52,1.36,6.17,3.5,7.93,2.14,1.76,4.69,2.64,7.64,2.64,3.9,0,7.31-.74,10.21-2.21,2.9-1.48,5.79-3.55,8.64-6.21-.1-1.05-.14-2.19-.14-3.43v-3.86c0-.48.02-2,.07-4.57.05-2.57.07-5.52.07-8.86Z"/>
    </g>
    <g>
      <path class="st0" d="M366.05,217.66c0-4.19-.57-7.19-1.71-9-1.14-1.81-2.95-2.9-5.43-3.29-2.48-.38-5.76-.48-9.86-.29l-10.43.43v32.71c0,2.57-.02,4.76-.07,6.57-.05,1.81-.17,3.33-.36,4.57l27.28-.43c4.19-.09,7.81-.79,10.86-2.07,3.05-1.29,5.43-3.55,7.14-6.79,1.71-3.24,2.57-7.66,2.57-13.29h4.86l-.86,27.86h-73.71v-4.71c3.62-.19,6.09-1.02,7.43-2.5,1.33-1.47,2.07-3.52,2.21-6.14.14-2.62.21-5.59.21-8.93v-61.71c0-1.9.05-3.74.14-5.5.09-1.76.19-3.36.29-4.79-1.71.1-3.43.19-5.14.29-1.71.1-3.43.19-5.14.29v-6.29h68.71l.71,25h-4.71c0-5.62-.86-9.88-2.57-12.79-1.71-2.9-4.02-4.86-6.93-5.86-2.91-1-6.17-1.45-9.79-1.36l-12.28.29c-3.52.1-6.05.76-7.57,2-1.52,1.24-2.45,3.07-2.79,5.5-.34,2.43-.5,5.6-.5,9.5v22.86l26.86.14-1-12.28h6.29v30h-4.71Z"/>
      <path class="st0" d="M402.33,254.66v-4.29c2.95,0,4.98-.74,6.07-2.21,1.09-1.48,1.74-3.52,1.93-6.14.19-2.62.29-5.64.29-9.07l.14-67.57c0-1.52.02-2.98.07-4.36.05-1.38.17-3.02.36-4.93-1.71.1-3.41.19-5.07.29-1.67.1-3.36.19-5.07.29v-6c4.19,0,7.43-.19,9.71-.57,2.29-.38,4.02-.86,5.21-1.43,1.19-.57,2.12-1.19,2.79-1.86h4.14v67.57h5.71l17.43-18.28c1.62-1.62,3.09-3.07,4.43-4.36,1.33-1.29,2.66-2.36,4-3.21l-9.71.43v-5.71h26v4.29c-3.24.29-6.26,1.31-9.07,3.07-2.81,1.76-5.38,3.74-7.71,5.93-2.33,2.19-4.36,4.19-6.07,6l-11.14,11.71c1.9.86,3.52,1.95,4.86,3.29,1.33,1.33,2.67,2.81,4,4.43l10.14,13c.48.57,1.31,1.67,2.5,3.28,1.19,1.62,2.62,3.38,4.29,5.29,1.67,1.91,3.43,3.52,5.29,4.86,1.86,1.33,3.59,2,5.21,2v4.29h-13c-2.67,0-5.19-1.38-7.57-4.14-2.38-2.76-4.91-5.86-7.57-9.28-2.48-3.43-4.69-6.55-6.64-9.36-1.95-2.81-3.71-5.26-5.29-7.36-1.57-2.09-2.98-3.71-4.21-4.86l-5.86.29v19.57c0,1.91-.02,3.6-.07,5.07-.05,1.48-.21,3.02-.5,4.64,1.52-.09,3.05-.16,4.57-.21,1.52-.05,3.05-.12,4.57-.21v5.86h-29.14Z"/>
      <path class="st0" d="M509.61,256.94c-4.76,0-9-.64-12.71-1.93-3.72-1.29-6.76-2.74-9.14-4.36l.57,5h-6l-.86-24.57h4.43c.19,3.91,1.29,7.41,3.29,10.5,2,3.1,4.57,5.5,7.71,7.21,3.14,1.71,6.52,2.57,10.14,2.57,2.48,0,4.9-.4,7.29-1.21,2.38-.81,4.38-2.05,6-3.71,1.62-1.67,2.43-3.79,2.43-6.36s-.78-4.88-2.36-6.64c-1.57-1.76-3.64-3.31-6.21-4.64-2.57-1.33-5.34-2.57-8.29-3.71-2.86-1.14-5.71-2.33-8.57-3.57-2.86-1.24-5.5-2.71-7.93-4.43-2.43-1.71-4.36-3.81-5.79-6.29-1.43-2.47-2.14-5.52-2.14-9.14,0-2,.38-4.19,1.14-6.57.76-2.38,2.05-4.64,3.86-6.79,1.81-2.14,4.29-3.9,7.43-5.29,3.14-1.38,7.14-2.07,12-2.07,2.57,0,5.43.43,8.57,1.28,3.14.86,6.19,2.48,9.14,4.86l-.29-5.43h6v25h-4.57c-.19-3.33-.95-6.55-2.29-9.64-1.33-3.09-3.28-5.67-5.86-7.71-2.57-2.05-5.91-3.07-10-3.07-4.38,0-7.81,1.1-10.29,3.28-2.48,2.19-3.71,4.72-3.71,7.57s.93,5.41,2.79,7.36c1.86,1.95,4.26,3.64,7.21,5.07,2.95,1.43,6.09,2.81,9.43,4.14,3.62,1.52,7.14,3.19,10.57,5,3.43,1.81,6.24,4.07,8.43,6.79,2.19,2.71,3.28,6.21,3.28,10.5,0,4.76-1.21,8.71-3.64,11.86-2.43,3.14-5.52,5.45-9.29,6.93-3.76,1.48-7.69,2.21-11.78,2.21Z"/>
      <path class="st0" d="M592.32,250.37c2.95,0,5-.74,6.14-2.21,1.14-1.48,1.81-3.52,2-6.14.19-2.62.29-5.64.29-9.07v-20c0-8.19-1.31-14.33-3.93-18.43-2.62-4.09-6.74-6.09-12.36-6-3.52.1-6.98.95-10.36,2.57-3.38,1.62-6.12,3.71-8.21,6.29v42.14c0,1.91-.05,3.6-.14,5.07-.1,1.48-.29,3.02-.57,4.64,1.52-.09,3.02-.16,4.5-.21,1.48-.05,2.97-.12,4.5-.21v5.86h-29.14v-4.29c2.95,0,5-.74,6.14-2.21,1.14-1.48,1.83-3.52,2.07-6.14.24-2.62.36-5.64.36-9.07v-67.57c0-1.52.02-2.98.07-4.36.05-1.38.16-3.02.36-4.93-1.71.1-3.41.19-5.07.29-1.67.1-3.36.19-5.07.29v-6c4.19,0,7.45-.19,9.79-.57,2.33-.38,4.09-.86,5.29-1.43,1.19-.57,2.12-1.19,2.79-1.86h4.14v43.57c2.09-1.81,4.45-3.4,7.07-4.79,2.62-1.38,5.33-2.5,8.14-3.36,2.81-.86,5.55-1.28,8.21-1.28,8.29,0,14.26,2.59,17.93,7.78,3.66,5.19,5.55,13.26,5.64,24.21l.14,26.57c0,1.91-.02,3.6-.07,5.07-.05,1.48-.21,3.02-.5,4.64,1.52-.09,3.02-.16,4.5-.21,1.48-.05,2.97-.12,4.5-.21v5.86h-29.14v-4.29Z"/>
      <path class="st0" d="M675.45,254.66c-.29-1.62-.48-3.05-.57-4.29-.1-1.24-.24-2.52-.43-3.86-3.24,3.24-6.74,5.79-10.5,7.64-3.76,1.86-7.74,2.79-11.93,2.79-7.24,0-12.62-1.64-16.14-4.93-3.52-3.29-5.29-7.31-5.29-12.07,0-4.38,1.36-8.17,4.07-11.36,2.71-3.19,6.24-5.81,10.57-7.86,4.33-2.05,9.05-3.57,14.14-4.57,5.09-1,10.02-1.45,14.78-1.36v-8.86c0-3.33-.29-6.47-.86-9.43-.57-2.95-1.81-5.38-3.71-7.29-1.91-1.9-4.95-2.9-9.14-3-2.76-.09-5.6.43-8.5,1.57-2.91,1.14-5.02,3.1-6.36,5.86.76.76,1.26,1.64,1.5,2.64.24,1,.36,1.93.36,2.78,0,1.14-.48,2.45-1.43,3.93-.95,1.48-2.62,2.17-5,2.07-2,0-3.52-.69-4.57-2.07-1.05-1.38-1.57-3.02-1.57-4.93,0-3.24,1.21-6.14,3.64-8.71s5.79-4.62,10.07-6.14c4.29-1.52,9.14-2.28,14.57-2.28,8,0,13.9,2.12,17.71,6.36,3.81,4.24,5.67,10.93,5.57,20.07v10.64c0,3.57-.02,7.14-.07,10.71-.05,3.57-.07,7.17-.07,10.78,0,1.52-.05,3.05-.14,4.57-.1,1.52-.24,3.24-.43,5.14,1.71-.09,3.4-.19,5.07-.29,1.67-.09,3.36-.19,5.07-.29v6h-20.43ZM674.17,219.66c-3.24.1-6.64.5-10.21,1.21-3.57.71-6.86,1.78-9.86,3.21-3,1.43-5.43,3.31-7.29,5.64-1.86,2.33-2.74,5.17-2.64,8.5.19,3.52,1.36,6.17,3.5,7.93,2.14,1.76,4.69,2.64,7.64,2.64,3.9,0,7.31-.74,10.21-2.21,2.9-1.48,5.79-3.55,8.64-6.21-.1-1.05-.14-2.19-.14-3.43v-3.86c0-.47.02-2,.07-4.57.05-2.57.07-5.52.07-8.86Z"/>
      <path class="st0" d="M731.59,256.94c-2.19,0-4.43-.31-6.71-.93-2.29-.62-4.41-1.83-6.36-3.64-1.95-1.81-3.5-4.45-4.64-7.93-1.14-3.47-1.71-8.07-1.71-13.79l.29-41.43-11,.14v-6.14c2.48-.09,5-1.02,7.57-2.78,2.57-1.76,4.88-4.17,6.93-7.21,2.05-3.05,3.45-6.38,4.21-10h4.86v20h24v5.57l-24,.29-.29,39.71c0,4.29.36,7.93,1.07,10.93.71,3,1.88,5.26,3.5,6.79,1.62,1.52,3.71,2.29,6.29,2.29s5.17-.76,7.5-2.29c2.33-1.52,4.4-3.62,6.21-6.29l3.86,3.14c-2.1,3.14-4.17,5.62-6.21,7.43-2.05,1.81-4.02,3.17-5.93,4.07-1.91.9-3.67,1.47-5.29,1.71-1.62.24-3,.36-4.14.36Z"/>
      <path class="st0" d="M805.88,250.37c2.95,0,5-.74,6.14-2.21,1.14-1.48,1.81-3.52,2-6.14.19-2.62.29-5.64.29-9.07v-20c0-8.19-1.31-14.33-3.93-18.43-2.62-4.09-6.74-6.09-12.36-6-3.52.1-6.98.95-10.36,2.57-3.38,1.62-6.12,3.71-8.21,6.29v42.14c0,1.91-.05,3.6-.14,5.07-.1,1.48-.29,3.02-.57,4.64,1.52-.09,3.02-.16,4.5-.21,1.48-.05,2.97-.12,4.5-.21v5.86h-29.14v-4.29c2.95,0,5-.74,6.14-2.21,1.14-1.48,1.83-3.52,2.07-6.14.24-2.62.36-5.64.36-9.07v-67.57c0-1.52.02-2.98.07-4.36.05-1.38.16-3.02.36-4.93-1.71.1-3.41.19-5.07.29-1.67.1-3.36.19-5.07.29v-6c4.19,0,7.45-.19,9.79-.57,2.33-.38,4.09-.86,5.29-1.43,1.19-.57,2.12-1.19,2.79-1.86h4.14v43.57c2.09-1.81,4.45-3.4,7.07-4.79,2.62-1.38,5.33-2.5,8.14-3.36,2.81-.86,5.55-1.28,8.21-1.28,8.29,0,14.26,2.59,17.93,7.78,3.66,5.19,5.55,13.26,5.64,24.21l.14,26.57c0,1.91-.02,3.6-.07,5.07-.05,1.48-.21,3.02-.5,4.64,1.52-.09,3.02-.16,4.5-.21,1.48-.05,2.97-.12,4.5-.21v5.86h-29.14v-4.29Z"/>
      <path class="st0" d="M880.16,256.94c-6.57,0-12.5-1.55-17.78-4.64-5.29-3.09-9.45-7.48-12.5-13.14-3.05-5.67-4.57-12.36-4.57-20.07,0-6.67,1.5-12.9,4.5-18.71,3-5.81,7.21-10.5,12.64-14.07,5.43-3.57,11.71-5.36,18.86-5.36,4,0,7.74.64,11.21,1.93,3.47,1.29,6.55,3.24,9.21,5.86,2.66,2.62,4.76,5.91,6.29,9.86,1.52,3.95,2.29,8.6,2.29,13.93l-50.28.86c0,7.24.79,13.6,2.36,19.07,1.57,5.48,4.12,9.71,7.64,12.71,3.52,3,8.05,4.5,13.57,4.5,2.95,0,5.97-.52,9.07-1.57,3.09-1.05,5.98-2.48,8.64-4.29,2.67-1.81,4.81-3.81,6.43-6l3.43,2.86c-2.57,4-5.67,7.19-9.28,9.57-3.62,2.38-7.33,4.1-11.14,5.14-3.81,1.05-7.33,1.57-10.57,1.57ZM860.44,207.38h36.43c0-3.43-.5-6.74-1.5-9.93-1-3.19-2.64-5.81-4.93-7.86-2.29-2.05-5.29-3.07-9-3.07-5.52,0-10.12,1.64-13.78,4.93-3.67,3.29-6.07,8.6-7.21,15.93Z"/>
    </g>
  </g>
  <path class="st0" d="M296.79,25.65l-9.57,17.4c7.82,66.26-2.89,120.03-31.84,159.83-24.13,33.17-55.75,49.41-78.03,57.19-11.9,4.15-24.38,6.26-37.11,6.26H0V116.06l3.16,1.94c18.92,11.6,38.3,17.7,54.13,20.88-16.04-7.49-29.65-20.49-40.21-38.63C3.93,77.63.18,55.37.03,54.43l-.03-.17V0h116.82c18.43,0,35.64,5.34,51.14,15.87,12.34,8.38,23.61,20.05,33.51,34.67,9.61,14.21,16.06,28.53,19.83,38.23l-.23-35.69c-.09-14.33,9.38-27.22,23.03-31.34.63-.19.99-.28.99-.28l.11-.03.12-.02c1.79-.24,3.64-.36,5.5-.36,10.26,0,18.48,3.63,20.56,4.63,5.13-.1,20.29.05,25.42-.04"/>
  <path class="st0" d="M275.93,29.76"/>
</svg>